<mxfile host="app.diagrams.net" modified="2024-06-17T13:48:19.807Z" agent="Mozilla/5.0 (Windows NT 10.0; Win64; x64; rv:127.0) Gecko/20100101 Firefox/127.0" etag="LAqPXDxg0mmEAJ5QNP5-" version="24.5.4" type="device">
  <diagram name="Page-1" id="z6RFD68-6NQF5fGrvGrL">
    <mxGraphModel dx="1433" dy="696" grid="1" gridSize="10" guides="1" tooltips="1" connect="1" arrows="1" fold="1" page="1" pageScale="1" pageWidth="850" pageHeight="1100" math="0" shadow="0">
      <root>
        <mxCell id="0" />
        <mxCell id="1" parent="0" />
        <mxCell id="wjywxUtsuOO7F8xe4Ciu-1" value="Publisher" style="rounded=0;whiteSpace=wrap;html=1;" parent="1" vertex="1">
          <mxGeometry x="320" y="160" width="100" height="50" as="geometry" />
        </mxCell>
        <mxCell id="wjywxUtsuOO7F8xe4Ciu-2" value="Studio" style="rounded=0;whiteSpace=wrap;html=1;" parent="1" vertex="1">
          <mxGeometry x="621" y="59" width="100" height="50" as="geometry" />
        </mxCell>
        <mxCell id="wjywxUtsuOO7F8xe4Ciu-13" style="rounded=0;orthogonalLoop=1;jettySize=auto;html=1;entryX=1;entryY=0.5;entryDx=0;entryDy=0;endArrow=none;endFill=0;exitX=0;exitY=0.5;exitDx=0;exitDy=0;" parent="1" source="wjywxUtsuOO7F8xe4Ciu-4" target="wjywxUtsuOO7F8xe4Ciu-1" edge="1">
          <mxGeometry relative="1" as="geometry" />
        </mxCell>
        <mxCell id="wjywxUtsuOO7F8xe4Ciu-18" value="1:M" style="edgeLabel;html=1;align=center;verticalAlign=middle;resizable=0;points=[];" parent="wjywxUtsuOO7F8xe4Ciu-13" vertex="1" connectable="0">
          <mxGeometry x="-0.5271" y="-1" relative="1" as="geometry">
            <mxPoint x="-14" y="1" as="offset" />
          </mxGeometry>
        </mxCell>
        <mxCell id="wjywxUtsuOO7F8xe4Ciu-89" value="" style="edgeStyle=orthogonalEdgeStyle;rounded=0;orthogonalLoop=1;jettySize=auto;html=1;endArrow=none;endFill=0;entryX=0.5;entryY=1;entryDx=0;entryDy=0;" parent="1" source="wjywxUtsuOO7F8xe4Ciu-4" target="wjywxUtsuOO7F8xe4Ciu-2" edge="1">
          <mxGeometry relative="1" as="geometry">
            <mxPoint x="620" y="185.00000000000006" as="targetPoint" />
          </mxGeometry>
        </mxCell>
        <mxCell id="wjywxUtsuOO7F8xe4Ciu-92" value="M:1" style="edgeLabel;html=1;align=center;verticalAlign=middle;resizable=0;points=[];" parent="wjywxUtsuOO7F8xe4Ciu-89" vertex="1" connectable="0">
          <mxGeometry x="-0.046" y="-2" relative="1" as="geometry">
            <mxPoint x="-33" y="-2" as="offset" />
          </mxGeometry>
        </mxCell>
        <mxCell id="wjywxUtsuOO7F8xe4Ciu-4" value="Game" style="rounded=0;whiteSpace=wrap;html=1;" parent="1" vertex="1">
          <mxGeometry x="470" y="160" width="100" height="50" as="geometry" />
        </mxCell>
        <mxCell id="wjywxUtsuOO7F8xe4Ciu-9" style="rounded=0;orthogonalLoop=1;jettySize=auto;html=1;endArrow=none;endFill=0;entryX=0;entryY=0.5;entryDx=0;entryDy=0;exitX=1;exitY=0.5;exitDx=0;exitDy=0;" parent="1" source="wjywxUtsuOO7F8xe4Ciu-6" target="wjywxUtsuOO7F8xe4Ciu-2" edge="1">
          <mxGeometry relative="1" as="geometry" />
        </mxCell>
        <mxCell id="wjywxUtsuOO7F8xe4Ciu-17" value="M:1" style="edgeLabel;html=1;align=center;verticalAlign=middle;resizable=0;points=[];" parent="wjywxUtsuOO7F8xe4Ciu-9" vertex="1" connectable="0">
          <mxGeometry x="-0.3394" y="1" relative="1" as="geometry">
            <mxPoint x="8" as="offset" />
          </mxGeometry>
        </mxCell>
        <mxCell id="wjywxUtsuOO7F8xe4Ciu-93" style="rounded=0;orthogonalLoop=1;jettySize=auto;html=1;endArrow=none;endFill=0;" parent="1" source="wjywxUtsuOO7F8xe4Ciu-6" target="wjywxUtsuOO7F8xe4Ciu-4" edge="1">
          <mxGeometry relative="1" as="geometry" />
        </mxCell>
        <mxCell id="wjywxUtsuOO7F8xe4Ciu-94" value="M:M" style="edgeLabel;html=1;align=center;verticalAlign=middle;resizable=0;points=[];rotation=90;" parent="wjywxUtsuOO7F8xe4Ciu-93" vertex="1" connectable="0">
          <mxGeometry x="0.0485" y="-2" relative="1" as="geometry">
            <mxPoint x="3" as="offset" />
          </mxGeometry>
        </mxCell>
        <mxCell id="wjywxUtsuOO7F8xe4Ciu-6" value="Developer" style="rounded=0;whiteSpace=wrap;html=1;" parent="1" vertex="1">
          <mxGeometry x="470" y="59" width="100" height="50" as="geometry" />
        </mxCell>
        <mxCell id="wjywxUtsuOO7F8xe4Ciu-60" value="&lt;div align=&quot;left&quot;&gt;&lt;b&gt;Publisher&lt;/b&gt;&lt;/div&gt;&lt;div align=&quot;left&quot;&gt;+ ID: int&lt;br&gt;&lt;/div&gt;&lt;div align=&quot;left&quot;&gt;+ Name: String&lt;/div&gt;" style="rounded=0;whiteSpace=wrap;html=1;align=left;" parent="1" vertex="1">
          <mxGeometry x="300" y="325" width="130" height="50" as="geometry" />
        </mxCell>
        <mxCell id="wjywxUtsuOO7F8xe4Ciu-63" value="&lt;div align=&quot;left&quot;&gt;&lt;b&gt;Studio&lt;/b&gt;&lt;/div&gt;+ ID: int&lt;br&gt;&lt;div align=&quot;left&quot;&gt;+ Name: String&lt;/div&gt;&lt;div&gt;+ Franchises: Array&amp;lt;Franchise&amp;gt;&lt;/div&gt;&lt;div&gt;&lt;br&gt;&lt;/div&gt;&lt;div&gt;&lt;br&gt;&lt;/div&gt;&lt;div&gt;&lt;br&gt;&lt;/div&gt;&lt;div&gt;&lt;br&gt;&lt;/div&gt;&lt;div&gt;&lt;br&gt;&lt;/div&gt;&lt;div&gt;&lt;br&gt;&lt;/div&gt;" style="rounded=0;whiteSpace=wrap;html=1;align=left;" parent="1" vertex="1">
          <mxGeometry x="450" y="250" width="180" height="150" as="geometry" />
        </mxCell>
        <mxCell id="wjywxUtsuOO7F8xe4Ciu-82" style="rounded=0;orthogonalLoop=1;jettySize=auto;html=1;endArrow=none;endFill=0;entryX=1;entryY=0.5;entryDx=0;entryDy=0;exitX=0;exitY=0.5;exitDx=0;exitDy=0;" parent="1" source="wjywxUtsuOO7F8xe4Ciu-68" target="wjywxUtsuOO7F8xe4Ciu-60" edge="1">
          <mxGeometry relative="1" as="geometry" />
        </mxCell>
        <mxCell id="wjywxUtsuOO7F8xe4Ciu-96" style="edgeStyle=orthogonalEdgeStyle;rounded=0;orthogonalLoop=1;jettySize=auto;html=1;entryX=0;entryY=0.75;entryDx=0;entryDy=0;endArrow=none;endFill=0;" parent="1" source="wjywxUtsuOO7F8xe4Ciu-68" target="wjywxUtsuOO7F8xe4Ciu-73" edge="1">
          <mxGeometry relative="1" as="geometry">
            <Array as="points">
              <mxPoint x="640" y="335" />
              <mxPoint x="640" y="335" />
            </Array>
          </mxGeometry>
        </mxCell>
        <mxCell id="wjywxUtsuOO7F8xe4Ciu-68" value="&lt;div align=&quot;left&quot;&gt;&lt;b&gt;Game&lt;/b&gt;&lt;br&gt;&lt;/div&gt;&lt;div align=&quot;left&quot;&gt;+ ID: int&lt;br&gt;&lt;/div&gt;&lt;div align=&quot;left&quot;&gt;+ Name: String&lt;/div&gt;&lt;div align=&quot;left&quot;&gt;+ Developer IDs: Array&amp;lt;int&amp;gt;&lt;br&gt;&lt;/div&gt;+ Publisher ID: int" style="rounded=0;whiteSpace=wrap;html=1;align=left;" parent="1" vertex="1">
          <mxGeometry x="471" y="313" width="150" height="74" as="geometry" />
        </mxCell>
        <mxCell id="r8Wesfex8LScu02Mhf33-1" style="edgeStyle=orthogonalEdgeStyle;rounded=0;orthogonalLoop=1;jettySize=auto;html=1;entryX=1;entryY=0.5;entryDx=0;entryDy=0;endArrow=none;endFill=0;" edge="1" parent="1">
          <mxGeometry relative="1" as="geometry">
            <mxPoint x="660" y="327.9999999999999" as="sourcePoint" />
            <mxPoint x="630" y="323" as="targetPoint" />
            <Array as="points">
              <mxPoint x="660" y="323" />
            </Array>
          </mxGeometry>
        </mxCell>
        <mxCell id="wjywxUtsuOO7F8xe4Ciu-73" value="&lt;div align=&quot;left&quot;&gt;&lt;b&gt;Developer&lt;/b&gt;&lt;/div&gt;&lt;div align=&quot;left&quot;&gt;+ Name: String&lt;/div&gt;&lt;div align=&quot;left&quot;&gt;+ Studio ID: int&lt;br&gt;&lt;div align=&quot;left&quot;&gt;+ ID: int &lt;br&gt;&lt;/div&gt;&lt;/div&gt;" style="rounded=0;whiteSpace=wrap;html=1;align=left;" parent="1" vertex="1">
          <mxGeometry x="660" y="290" width="150" height="60" as="geometry" />
        </mxCell>
      </root>
    </mxGraphModel>
  </diagram>
</mxfile>
